<svg width="105" height="70" viewBox="0 0 105 70" fill="none" xmlns="http://www.w3.org/2000/svg">
<path fill-rule="evenodd" clip-rule="evenodd" d="M0.0048893 33.1663C0.499389 39.929 34.6991 74.2577 61.0767 69.0099C71.2829 66.9881 83.6256 49.7964 92.5147 25.323C93.9799 21.2872 94.9562 18.5041 96.9393 14.8225C97.057 14.5837 97.1872 16.567 97.2024 19.2652C97.2385 25.6535 98.1689 28.783 100.337 29.7429C101.391 30.1933 101.606 29.696 101.336 27.4556C100.546 21.0319 101.282 14.5003 103.87 5.49816C104.882 1.96093 103.546 -2.75349 97.0162 3.85047C91.4925 9.43687 87.7197 12.3747 81.1538 16.102C76.9018 18.5267 76.5824 21.683 80.5893 21.5414C81.9778 21.4939 86.527 19.008 90.9536 15.8879L93.2063 14.288C89.5722 24.2286 89.3774 24.8646 85.9493 32.6414C77.7803 51.119 68.6372 62.2414 60.0964 64.0554C38.4964 68.6215 14.758 45.8203 0.753625 32.2494C0.374544 31.8746 -0.058981 32.3929 0.0048893 33.1663Z" fill="black"/>
</svg>
